<svg width="22" height="22" viewBox="0 0 22 22" fill="none" xmlns="http://www.w3.org/2000/svg">
<path opacity="0.4" d="M13.1267 17.4809C13.1267 18.04 12.76 18.7734 12.2925 19.0575L11 19.8917C9.79918 20.6342 8.13084 19.8 8.13084 18.315V13.4109C8.13084 12.76 7.76418 11.9259 7.38835 11.4675L3.86832 7.76419C3.40082 7.29669 3.03418 6.4717 3.03418 5.91253V3.78586C3.03418 2.67669 3.86836 1.84253 4.88586 1.84253H17.1142C18.1317 1.84253 18.9659 2.67669 18.9659 3.69419V5.72919C18.9659 6.47169 18.4983 7.39753 18.04 7.85586" stroke="#292D32" stroke-width="1.5" stroke-miterlimit="10" stroke-linecap="round" stroke-linejoin="round"/>
<path d="M14.7307 15.1433C16.3507 15.1433 17.6641 13.83 17.6641 12.21C17.6641 10.5899 16.3507 9.27661 14.7307 9.27661C13.1107 9.27661 11.7974 10.5899 11.7974 12.21C11.7974 13.83 13.1107 15.1433 14.7307 15.1433Z" stroke="#292D32" stroke-width="1.5" stroke-linecap="round" stroke-linejoin="round"/>
<path d="M18.214 15.6933L17.2974 14.7766" stroke="#292D32" stroke-width="1.5" stroke-linecap="round" stroke-linejoin="round"/>
</svg>
